# xmcd
#
# Track frame offsets:
#	150
#	13566
#	26492
#	41918
#	60322
#	75184
#	95508
#	111861
#	129472
#	149112
#	170006
#	187462
#	201824
#
# Disc length: 3040 seconds
#
# Revision: 5
# Processed by: cddbd v1.5.2PL0 Copyright (c) Steve Scherf et al.
# Submitted via: EasyCDDAExtractor 15.3.0.1
#
DISCID=b60bde0d
DTITLE=Hans Theessink - Crazy Moon
DYEAR=1995
DGENRE=Blues
TTITLE0=Rolling Stone
TTITLE1=Paint The Town
TTITLE2=Lazy, Long Hot Summer's Day
TTITLE3=Power Of Love
TTITLE4=Homecooking
TTITLE5=Homeless
TTITLE6=Sail Away
TTITLE7=Roll With The Punches
TTITLE8=Crazy Moon
TTITLE9=Train
TTITLE10=Tears Are Rolling
TTITLE11=Get Down 'n Play The Blues
TTITLE12=Man With A Broken Heart
EXTD=
EXTT0=
EXTT1=
EXTT2=
EXTT3=
EXTT4=
EXTT5=
EXTT6=
EXTT7=
EXTT8=
EXTT9=
EXTT10=
EXTT11=
EXTT12=
PLAYORDER=
